<svg id="icons" enable-background="new 0 0 64 64" height="512" viewBox="0 0 64 64" width="512" xmlns="http://www.w3.org/2000/svg"><path d="m48.496 1h-41.99c-1.1 0-2 .9-2 2v2 4 4 4 4 4 7c0-1.1.9-2 2-2h41.99c1.1 0 2 .9 2 2v-7-4-4-4-4-4-2c0-1.1-.9-2-2-2z" fill="#434a54"/><path d="m48.496 30h-41.99c-1.1 0-2 .9-2 2v.02 9.99c0 1.101.9 2 2 2h41.99c1.1 0 2-.899 2-2v-6.01-3.98-.02c0-1.1-.9-2-2-2z" fill="#545c66"/><path d="m32.496 51c3.31 0 5.99 2.69 5.99 6s-2.681 6-6 6c-2.61 0-4.83-1.68-5.65-4.01h-.689c-.82 2.33-3.04 4.01-5.66 4.01-3.311 0-6-2.69-6-6 0-3.32 2.689-6 6-6h5.99z" fill="#656d78"/><path d="m53.506 33.99v2.01h-3.01v-3.98-.02h3.01z" fill="#656d78"/><path d="m44.496 35c1.11 0 2 .9 2 2 0 1.11-.89 2-2 2-1.1 0-2-.89-2-2 0-1.1.9-2 2-2z" fill="#aab2bd"/><path d="m16.506 35h22.07v4h-22.07z" fill="#656d78"/><path d="m27.506 9c3.311 0 6 2.69 6 6s-2.689 6-6 6c-3.31 0-6-2.69-6-6s2.69-6 6-6z" fill="#545c66"/><path d="m48.502 45.009h-41.996c-1.654 0-3-1.346-3-3v-10.005c0-1.654 1.346-3 3-3h41.996c1.654 0 3 1.346 3 3v10.005c0 1.654-1.346 3-3 3zm-41.996-14.005c-.552 0-1 .448-1 1v10.005c0 .552.448 1 1 1h41.996c.552 0 1-.448 1-1v-10.005c0-.552-.448-1-1-1z"/><path d="m50.502 33.024c-.553 0-1-.447-1-1v-29.023c0-.552-.448-1-1-1h-41.996c-.552 0-1 .448-1 1v29.023c0 .553-.447 1-1 1s-1-.447-1-1v-29.023c0-1.654 1.346-3 3-3h41.996c1.654 0 3 1.346 3 3v29.023c0 .553-.447 1-1 1z"/><path d="m38.584 40.004h-22.076c-.553 0-1-.447-1-1v-4c0-.553.447-1 1-1h22.076c.553 0 1 .447 1 1v4c0 .553-.447 1-1 1zm-21.076-2h20.076v-2h-20.076z"/><path d="m44.502 40.004c-1.654 0-3-1.346-3-3s1.346-3 3-3 3 1.346 3 3-1.346 3-3 3zm0-4c-.552 0-1 .448-1 1s.448 1 1 1 1-.448 1-1-.448-1-1-1z"/><path d="m8.536 38c-.553 0-1.005-.447-1.005-1s.442-1 .994-1h.011c.552 0 1 .447 1 1s-.448 1-1 1z"/><path d="m12.536 38.006c-.553 0-1.005-.447-1.005-1s.442-1 .994-1h.011c.552 0 1 .447 1 1s-.448 1-1 1z"/><path d="m22.484 57.989h-4c-.553 0-1-.447-1-1s.447-1 1-1h4c.553 0 1 .447 1 1s-.447 1-1 1z"/><path d="m30.526 57.989c-.553 0-1.005-.447-1.005-1s.442-1 .994-1h.011c.552 0 1 .447 1 1s-.448 1-1 1z"/><path d="m32.526 55.99c-.553 0-1.005-.447-1.005-1s.442-1 .994-1h.011c.552 0 1 .447 1 1s-.448 1-1 1z"/><path d="m32.528 59.989c-.553 0-1.005-.447-1.005-1s.442-1 .994-1h.011c.552 0 1 .447 1 1s-.448 1-1 1z"/><path d="m34.528 57.99c-.553 0-1.005-.447-1.005-1s.442-1 .994-1h.011c.552 0 1 .447 1 1s-.448 1-1 1z"/><path d="m26.484 51.999c-.553 0-1-.447-1-1v-1c0-.553.447-1 1-1s1 .447 1 1v1c0 .553-.447 1-1 1z"/><path d="m26.484 50.992c-.553 0-1-.447-1-1 0-1.654 1.346-3 3-3 .553 0 1 .447 1 1s-.447 1-1 1c-.552 0-1 .448-1 1 0 .553-.447 1-1 1z"/><path d="m56.494 48.991c-.553 0-1-.447-1-1s.447-1 1-1c1.102 0 1.998-.896 1.998-1.998 0-.553.447-1 1-1s1 .447 1 1c0 2.204-1.794 3.998-3.998 3.998z"/><path d="m59.484 37.981c-.553 0-1-.447-1-1 0-1.102-.896-1.998-1.998-1.998-.553 0-1-.447-1-1s.447-1 1-1c2.204 0 3.998 1.794 3.998 3.998 0 .553-.447 1-1 1z"/><path d="m56.494 48.992h-28.01c-.553 0-1-.447-1-1s.447-1 1-1h28.01c.553 0 1 .447 1 1s-.447 1-1 1z"/><path d="m32.492 63.999c-2.484 0-4.751-1.323-5.998-3.402-1.248 2.079-3.515 3.402-6 3.402-3.859 0-7-3.14-7-6.999s3.141-7 7-7h12.004c3.857.003 6.994 3.144 6.994 7 0 3.859-3.14 6.999-7 6.999zm-6.342-6.01h.688c.424 0 .802.268.943.668.704 1.999 2.598 3.342 4.711 3.342 2.757 0 5-2.242 5-4.999 0-2.755-2.241-4.998-4.995-5h-12.003c-2.757 0-5 2.243-5 5s2.243 4.999 5 4.999c2.115 0 4.009-1.343 4.713-3.342.142-.4.52-.668.943-.668z"/><path d="m59.494 45.993c-.553 0-1-.447-1-1v-7.993c0-.553.447-1 1-1s1 .447 1 1v7.993c0 .553-.447 1-1 1z"/><path d="m56.486 34.988h-2.98c-.553 0-1-.447-1-1s.447-1 1-1h2.98c.553 0 1 .447 1 1s-.447 1-1 1z"/><path d="m53.506 37.004h-3.004c-.553 0-1-.447-1-1s.447-1 1-1h2.004v-2h-2.004c-.553 0-1-.447-1-1s.447-1 1-1h3.004c.553 0 1 .447 1 1v4c0 .553-.447 1-1 1z"/><path d="m20.48 60.004c-.553 0-1-.447-1-1v-4.021c0-.553.447-1 1-1s1 .447 1 1v4.021c0 .553-.447 1-1 1z"/><path d="m6.506 6.004h-2c-.553 0-1-.447-1-1s.447-1 1-1h2c.553 0 1 .447 1 1s-.447 1-1 1z"/><path d="m6.506 10.004h-2c-.553 0-1-.447-1-1s.447-1 1-1h2c.553 0 1 .447 1 1s-.447 1-1 1z"/><path d="m6.506 14.004h-2c-.553 0-1-.447-1-1s.447-1 1-1h2c.553 0 1 .447 1 1s-.447 1-1 1z"/><path d="m6.506 18.004h-2c-.553 0-1-.447-1-1s.447-1 1-1h2c.553 0 1 .447 1 1s-.447 1-1 1z"/><path d="m6.506 22.004h-2c-.553 0-1-.447-1-1s.447-1 1-1h2c.553 0 1 .447 1 1s-.447 1-1 1z"/><path d="m6.506 26.004h-2c-.553 0-1-.447-1-1s.447-1 1-1h2c.553 0 1 .447 1 1s-.447 1-1 1z"/><path d="m50.506 6.004h-2c-.553 0-1-.447-1-1s.447-1 1-1h2c.553 0 1 .447 1 1s-.447 1-1 1z"/><path d="m50.506 10.004h-2c-.553 0-1-.447-1-1s.447-1 1-1h2c.553 0 1 .447 1 1s-.447 1-1 1z"/><path d="m50.506 14.004h-2c-.553 0-1-.447-1-1s.447-1 1-1h2c.553 0 1 .447 1 1s-.447 1-1 1z"/><path d="m50.506 18.004h-2c-.553 0-1-.447-1-1s.447-1 1-1h2c.553 0 1 .447 1 1s-.447 1-1 1z"/><path d="m50.506 22.004h-2c-.553 0-1-.447-1-1s.447-1 1-1h2c.553 0 1 .447 1 1s-.447 1-1 1z"/><path d="m50.506 26.004h-2c-.553 0-1-.447-1-1s.447-1 1-1h2c.553 0 1 .447 1 1s-.447 1-1 1z"/><path d="m27.506 22.003c-3.859 0-7-3.141-7-7s3.141-6.999 7-6.999 7 3.14 7 6.999-3.141 7-7 7zm0-11.999c-2.757 0-5 2.242-5 4.999s2.243 5 5 5 5-2.243 5-5-2.243-4.999-5-4.999z"/></svg>